<?xml version="1.0" standalone="no"?>
<!DOCTYPE svg PUBLIC "-//W3C//DTD SVG 20010904//EN"
 "http://www.w3.org/TR/2001/REC-SVG-20010904/DTD/svg10.dtd">
<svg version="1.0" xmlns="http://www.w3.org/2000/svg"
 width="123.000000pt" height="125.000000pt" viewBox="0 0 123.000000 125.000000"
 preserveAspectRatio="xMidYMid meet">

<g transform="translate(0.000000,125.000000) scale(0.100000,-0.100000)"
fill="#EEC274" stroke="none">
<path d="M873 1170 c-65 -18 -88 -31 -104 -61 -8 -15 -1 -14 41 8 53 28 74 25
47 -5 -10 -10 -17 -24 -17 -31 0 -17 80 54 98 86 15 26 17 26 -65 3z"/>
<path d="M563 1135 c-125 -34 -232 -116 -280 -214 -24 -47 -28 -69 -28 -136 0
-71 4 -89 34 -150 28 -58 55 -91 166 -200 73 -72 143 -146 155 -165 l22 -35
-5 65 c-3 41 -15 87 -32 125 -68 151 -84 249 -51 316 21 42 20 42 -9 23 -86
-57 -87 -177 0 -314 14 -23 24 -44 22 -46 -2 -3 -40 33 -83 79 -51 54 -92 108
-114 153 -32 63 -35 76 -35 159 0 75 4 97 23 134 59 109 199 196 347 214 17 2
5 4 -25 5 -30 0 -79 -6 -107 -13z"/>
<path d="M975 1124 c-17 -14 -22 -22 -11 -18 15 6 17 3 11 -14 -11 -35 3 -25
25 18 23 46 17 50 -25 14z"/>
<path d="M905 1080 c-11 -36 -41 -44 -120 -30 -63 11 -76 10 -103 -4 -18 -9
-32 -19 -32 -22 0 -2 9 0 19 6 28 15 68 12 133 -8 76 -24 81 -32 22 -33 l-49
-2 50 -7 c50 -7 95 4 95 23 0 5 13 -4 29 -19 61 -59 71 -66 71 -48 0 9 -11 25
-24 35 -13 10 -26 34 -30 52 -7 35 -32 77 -46 77 -5 0 -12 -9 -15 -20z"/>
<path d="M986 830 c7 -86 21 -126 71 -202 21 -30 24 -44 18 -78 -7 -44 -27
-60 -73 -60 -30 0 -42 14 -42 50 0 11 -18 28 -44 44 -50 29 -91 79 -82 101 4
11 -2 15 -18 15 -34 0 -88 40 -111 82 -17 32 -18 42 -8 68 10 27 10 30 -3 20
-8 -7 -14 -18 -14 -24 0 -7 -14 -23 -31 -35 -57 -43 -85 -154 -60 -241 7 -21
9 -17 15 26 15 105 70 147 127 99 17 -14 39 -25 49 -25 11 0 26 -12 34 -27 8
-15 38 -43 67 -63 41 -28 55 -43 64 -75 10 -37 13 -40 46 -39 75 2 86 10 103
68 20 69 20 69 -8 103 -40 48 -65 104 -80 187 -9 43 -18 81 -21 85 -3 3 -3
-33 1 -79z"/>
<path d="M145 707 c-5 -35 -3 -59 9 -90 21 -54 34 -69 135 -152 87 -72 97 -63
16 15 -77 74 -118 138 -136 210 l-17 65 -7 -48z"/>
<path d="M145 480 c29 -98 78 -135 299 -231 110 -47 183 -100 223 -160 26 -40
27 -40 37 -17 5 12 10 75 10 138 1 107 -1 119 -27 170 -15 30 -25 46 -21 35
16 -53 25 -153 19 -201 -3 -30 -9 -54 -11 -54 -3 0 -28 17 -57 39 -62 46 -88
59 -223 116 -123 52 -184 92 -226 148 -23 32 -28 36 -23 17z"/>
</g>
</svg>
